<mxfile host="app.diagrams.net" modified="2024-06-04T09:19:08.606Z" agent="Mozilla/5.0 (Windows NT 10.0; Win64; x64) AppleWebKit/537.36 (KHTML, like Gecko) Chrome/125.0.0.0 Safari/537.36 Edg/125.0.0.0" version="24.4.13" etag="wNZe5f5QiX2td5C4bny8" type="github">
  <diagram name="第 1 页" id="ym-yRiTKtVTiG3Xs5Rbf">
    <mxGraphModel>
      <root>
        <mxCell id="0" />
        <mxCell id="1" parent="0" />
      </root>
    </mxGraphModel>
  </diagram>
</mxfile>
